<svg width="24" height="25" viewBox="0 0 24 25" fill="none" xmlns="http://www.w3.org/2000/svg">
<path d="M12 2.75C9.41414 2.75 6.93419 3.77723 5.10571 5.60571C3.27723 7.43419 2.25 9.91414 2.25 12.5C2.25 15.0859 3.27723 17.5658 5.10571 19.3943C6.93419 21.2228 9.41414 22.25 12 22.25C14.0166 22.25 16.1344 21.6425 17.6653 20.6253C17.7474 20.5708 17.8179 20.5006 17.8728 20.4188C17.9278 20.337 17.966 20.2452 17.9855 20.1486C18.005 20.052 18.0052 19.9526 17.9862 19.8559C17.9672 19.7592 17.9294 19.6672 17.8748 19.5852C17.8203 19.5031 17.7501 19.4326 17.6683 19.3777C17.5866 19.3227 17.4947 19.2844 17.3982 19.265C17.3016 19.2455 17.2021 19.2453 17.1054 19.2643C17.0087 19.2832 16.9167 19.3211 16.8347 19.3756C15.5625 20.2231 13.7072 20.75 12 20.75C10.3683 20.75 8.77325 20.2661 7.41655 19.3596C6.05984 18.4531 5.00242 17.1646 4.37799 15.6571C3.75357 14.1496 3.59019 12.4908 3.90852 10.8905C4.22685 9.29016 5.01259 7.82015 6.16637 6.66637C7.32015 5.51259 8.79016 4.72685 10.3905 4.40852C11.9908 4.09019 13.6496 4.25357 15.1571 4.87799C16.6646 5.50242 17.9531 6.55984 18.8596 7.91655C19.7661 9.27325 20.25 10.8683 20.25 12.5C20.25 14.9797 19.23 15.5 18.375 15.5C17.52 15.5 16.5 14.9797 16.5 12.5V8.75C16.5 8.55109 16.421 8.36032 16.2803 8.21967C16.1397 8.07902 15.9489 8 15.75 8C15.5511 8 15.3603 8.07902 15.2197 8.21967C15.079 8.36032 15 8.55109 15 8.75V9.14937C14.327 8.54593 13.4878 8.15918 12.5918 8.03951C11.6958 7.91983 10.7845 8.07277 9.97666 8.47842C9.16883 8.88406 8.50189 9.5236 8.06273 10.3137C7.62357 11.1038 7.43255 12.0079 7.51455 12.9081C7.59656 13.8083 7.94778 14.663 8.52247 15.3608C9.09716 16.0585 9.86867 16.567 10.7365 16.82C11.6043 17.073 12.5282 17.0588 13.3879 16.7792C14.2475 16.4996 15.003 15.9676 15.5559 15.2525C16.1184 16.3775 17.0887 17 18.375 17C20.4881 17 21.75 15.3181 21.75 12.5C21.7473 9.91498 20.7192 7.43661 18.8913 5.60872C17.0634 3.78084 14.585 2.75273 12 2.75ZM12 15.5C11.4067 15.5 10.8266 15.3241 10.3333 14.9944C9.83994 14.6648 9.45542 14.1962 9.22836 13.6481C9.0013 13.0999 8.94189 12.4967 9.05764 11.9147C9.1734 11.3328 9.45912 10.7982 9.87868 10.3787C10.2982 9.95912 10.8328 9.6734 11.4147 9.55764C11.9967 9.44189 12.5999 9.5013 13.1481 9.72836C13.6962 9.95542 14.1648 10.3399 14.4944 10.8333C14.8241 11.3266 15 11.9067 15 12.5C15 13.2956 14.6839 14.0587 14.1213 14.6213C13.5587 15.1839 12.7956 15.5 12 15.5Z" fill="white"/>
</svg>
