<svg width="24" height="25" viewBox="0 0 24 25" fill="none" xmlns="http://www.w3.org/2000/svg">
<path d="M15 8C15 7.80109 15.079 7.61032 15.2197 7.46967C15.3603 7.32902 15.5511 7.25 15.75 7.25H21.75C21.9489 7.25 22.1397 7.32902 22.2803 7.46967C22.421 7.61032 22.5 7.80109 22.5 8C22.5 8.19891 22.421 8.38968 22.2803 8.53033C22.1397 8.67098 21.9489 8.75 21.75 8.75H15.75C15.5511 8.75 15.3603 8.67098 15.2197 8.53033C15.079 8.38968 15 8.19891 15 8ZM12.75 15.3125C12.75 16.3568 12.3352 17.3583 11.5967 18.0967C10.8583 18.8352 9.85679 19.25 8.8125 19.25H3C2.80109 19.25 2.61032 19.171 2.46967 19.0303C2.32902 18.8897 2.25 18.6989 2.25 18.5V6.5C2.25 6.30109 2.32902 6.11032 2.46967 5.96967C2.61032 5.82902 2.80109 5.75 3 5.75H8.4375C9.15482 5.75076 9.8552 5.96805 10.447 6.37344C11.0388 6.77882 11.4944 7.35341 11.7543 8.02201C12.0141 8.69062 12.0661 9.42209 11.9033 10.1207C11.7406 10.8193 11.3707 11.4525 10.8422 11.9375C11.4243 12.2877 11.9059 12.7825 12.2403 13.3739C12.5746 13.9653 12.7502 14.6332 12.75 15.3125ZM3.75 11.375H8.4375C8.98451 11.375 9.50911 11.1577 9.89591 10.7709C10.2827 10.3841 10.5 9.85951 10.5 9.3125C10.5 8.76549 10.2827 8.24089 9.89591 7.85409C9.50911 7.4673 8.98451 7.25 8.4375 7.25H3.75V11.375ZM11.25 15.3125C11.25 14.9924 11.187 14.6754 11.0645 14.3797C10.942 14.084 10.7624 13.8153 10.5361 13.5889C10.3097 13.3626 10.041 13.183 9.74529 13.0605C9.44956 12.938 9.1326 12.875 8.8125 12.875H3.75V17.75H8.8125C9.1326 17.75 9.44956 17.687 9.74529 17.5645C10.041 17.442 10.3097 17.2624 10.5361 17.0361C10.7624 16.8097 10.942 16.541 11.0645 16.2453C11.187 15.9496 11.25 15.6326 11.25 15.3125ZM23.25 14.75C23.25 14.9489 23.171 15.1397 23.0303 15.2803C22.8897 15.421 22.6989 15.5 22.5 15.5H15.8438C15.9849 16.0473 16.2778 16.5435 16.6887 16.9316C17.0996 17.3196 17.6118 17.5838 18.1662 17.6935C18.7206 17.8032 19.2948 17.7541 19.8225 17.5518C20.3502 17.3495 20.8101 17.0022 21.1491 16.55C21.2082 16.4712 21.2823 16.4048 21.3671 16.3547C21.4519 16.3045 21.5458 16.2716 21.6433 16.2577C21.7409 16.2438 21.8402 16.2493 21.9356 16.2738C22.0311 16.2983 22.1207 16.3413 22.1995 16.4005C22.2783 16.4596 22.3447 16.5337 22.3949 16.6185C22.445 16.7033 22.478 16.7972 22.4919 16.8947C22.5057 16.9923 22.5003 17.0916 22.4758 17.187C22.4513 17.2825 22.4082 17.3721 22.3491 17.4509C21.7077 18.3055 20.7832 18.904 19.7409 19.1392C18.6987 19.3745 17.6067 19.2313 16.6604 18.7351C15.7141 18.239 14.9752 17.4223 14.576 16.4312C14.1767 15.4401 14.1431 14.3393 14.4812 13.3258C14.8193 12.3122 15.507 11.452 16.4213 10.8991C17.3356 10.3462 18.4168 10.1366 19.4714 10.3079C20.5261 10.4792 21.4854 11.0202 22.1777 11.834C22.87 12.6479 23.2501 13.6815 23.25 14.75ZM21.6562 14C21.491 13.3547 21.1157 12.7827 20.5895 12.3743C20.0633 11.9658 19.4161 11.7441 18.75 11.7441C18.0839 11.7441 17.4367 11.9658 16.9105 12.3743C16.3843 12.7827 16.009 13.3547 15.8438 14H21.6562Z" fill="white"/>
</svg>
