<svg width="28" height="28" viewBox="0 0 28 28" fill="none" xmlns="http://www.w3.org/2000/svg">
<path d="M18.1191 22.1309C18.2004 22.2122 18.2649 22.3087 18.3089 22.415C18.3529 22.5212 18.3755 22.635 18.3755 22.75C18.3755 22.865 18.3529 22.9788 18.3089 23.085C18.2649 23.1913 18.2004 23.2878 18.1191 23.3691C18.0378 23.4504 17.9413 23.5148 17.8351 23.5588C17.7288 23.6028 17.615 23.6255 17.5 23.6255C17.385 23.6255 17.2712 23.6028 17.165 23.5588C17.0588 23.5148 16.9623 23.4504 16.881 23.3691L8.13095 14.6191C8.0496 14.5378 7.98506 14.4413 7.94103 14.3351C7.89699 14.2288 7.87433 14.115 7.87433 14C7.87433 13.885 7.89699 13.7711 7.94103 13.6649C7.98506 13.5587 8.0496 13.4622 8.13095 13.3809L16.881 4.63094C17.0451 4.46675 17.2678 4.37451 17.5 4.37451C17.7322 4.37451 17.9549 4.46675 18.1191 4.63094C18.2833 4.79512 18.3755 5.0178 18.3755 5.25C18.3755 5.48219 18.2833 5.70488 18.1191 5.86906L9.98705 14L18.1191 22.1309Z" fill="#333333"/>
</svg>
