<svg width="28" height="28" viewBox="0 0 28 28" fill="none" xmlns="http://www.w3.org/2000/svg">
<path d="M19.8691 14.6191L11.1191 23.3691C11.0378 23.4504 10.9413 23.5148 10.835 23.5588C10.7288 23.6028 10.615 23.6255 10.5 23.6255C10.385 23.6255 10.2712 23.6028 10.165 23.5588C10.0587 23.5148 9.96223 23.4504 9.88094 23.3691C9.79964 23.2878 9.73515 23.1913 9.69115 23.085C9.64716 22.9788 9.62451 22.865 9.62451 22.75C9.62451 22.635 9.64716 22.5212 9.69115 22.415C9.73515 22.3087 9.79964 22.2122 9.88094 22.1309L18.013 14L9.88094 5.86906C9.71675 5.70488 9.62451 5.48219 9.62451 5.25C9.62451 5.0178 9.71675 4.79512 9.88094 4.63094C10.0451 4.46675 10.2678 4.37451 10.5 4.37451C10.7322 4.37451 10.9549 4.46675 11.1191 4.63094L19.8691 13.3809C19.9504 13.4622 20.015 13.5587 20.059 13.6649C20.103 13.7711 20.1257 13.885 20.1257 14C20.1257 14.115 20.103 14.2288 20.059 14.3351C20.015 14.4413 19.9504 14.5378 19.8691 14.6191Z" fill="#333333"/>
</svg>
