<svg width="32" height="32" viewBox="0 0 32 32" fill="none" xmlns="http://www.w3.org/2000/svg">
<path d="M26.7075 16.2925C26.8005 16.3854 26.8742 16.4957 26.9246 16.6171C26.9749 16.7385 27.0008 16.8686 27.0008 17C27.0008 17.1314 26.9749 17.2615 26.9246 17.3829C26.8742 17.5043 26.8005 17.6146 26.7075 17.7075L16.7075 27.7075C16.6146 27.8005 16.5043 27.8742 16.3829 27.9246C16.2615 27.9749 16.1314 28.0008 16 28.0008C15.8686 28.0008 15.7385 27.9749 15.6171 27.9246C15.4957 27.8742 15.3854 27.8005 15.2925 27.7075L5.29251 17.7075C5.10487 17.5199 4.99945 17.2654 4.99945 17C4.99945 16.7346 5.10487 16.4801 5.29251 16.2925C5.48015 16.1049 5.73464 15.9995 6.00001 15.9995C6.26537 15.9995 6.51987 16.1049 6.70751 16.2925L16 25.5863L25.2925 16.2925C25.3854 16.1995 25.4957 16.1258 25.6171 16.0754C25.7385 16.0251 25.8686 15.9992 26 15.9992C26.1314 15.9992 26.2615 16.0251 26.3829 16.0754C26.5043 16.1258 26.6146 16.1995 26.7075 16.2925ZM15.2925 17.7075C15.3854 17.8005 15.4957 17.8742 15.6171 17.9246C15.7385 17.9749 15.8686 18.0008 16 18.0008C16.1314 18.0008 16.2615 17.9749 16.3829 17.9246C16.5043 17.8742 16.6146 17.8005 16.7075 17.7075L26.7075 7.70751C26.8951 7.51987 27.0006 7.26537 27.0006 7.00001C27.0006 6.73464 26.8951 6.48015 26.7075 6.29251C26.5199 6.10487 26.2654 5.99945 26 5.99945C25.7346 5.99945 25.4801 6.10487 25.2925 6.29251L16 15.5863L6.70751 6.29251C6.51987 6.10487 6.26537 5.99945 6.00001 5.99945C5.73464 5.99945 5.48015 6.10487 5.29251 6.29251C5.10487 6.48015 4.99945 6.73464 4.99945 7.00001C4.99945 7.26537 5.10487 7.51987 5.29251 7.70751L15.2925 17.7075Z" fill="white"/>
</svg>
