<svg width="24" height="25" viewBox="0 0 24 25" fill="none" xmlns="http://www.w3.org/2000/svg">
<path d="M12 2.75C10.0716 2.75 8.18657 3.32183 6.58319 4.39317C4.97982 5.46451 3.73013 6.98726 2.99218 8.76884C2.25422 10.5504 2.06114 12.5108 2.43735 14.4021C2.81355 16.2934 3.74215 18.0307 5.10571 19.3943C6.46928 20.7579 8.20656 21.6865 10.0979 22.0627C11.9892 22.4389 13.9496 22.2458 15.7312 21.5078C17.5127 20.7699 19.0355 19.5202 20.1068 17.9168C21.1782 16.3134 21.75 14.4284 21.75 12.5C21.7473 9.91498 20.7192 7.43661 18.8913 5.60872C17.0634 3.78084 14.585 2.75273 12 2.75ZM20.2172 11.7669C19.9784 11.7556 19.7394 11.75 19.5 11.75C18.1088 11.7504 16.7237 11.9345 15.3806 12.2975C15.0532 11.3259 14.6309 10.3888 14.1197 9.5C15.4528 8.69611 16.6596 7.69938 17.7009 6.54219C19.1459 7.92075 20.0402 9.77769 20.2172 11.7669ZM16.5263 5.60562C15.5895 6.63498 14.5067 7.5213 13.3125 8.23625C12.3124 6.82852 11.0891 5.59352 9.69094 4.58C10.8379 4.24517 12.0439 4.16347 13.2256 4.34056C14.4072 4.51764 15.5363 4.94928 16.5347 5.60562H16.5263ZM8.02969 5.27C9.56212 6.23506 10.8981 7.48135 11.9672 8.94312C10.0962 9.80548 8.06021 10.2514 6 10.25C5.36416 10.2497 4.72903 10.2074 4.09875 10.1234C4.7259 8.05485 6.13652 6.31319 8.02969 5.27ZM3.75 12.5C3.74997 12.1981 3.76655 11.8964 3.79969 11.5963C4.52866 11.6986 5.26388 11.75 6 11.75C8.3527 11.7522 10.6759 11.2268 12.7988 10.2125C13.2664 11.0201 13.653 11.8721 13.9528 12.7559C13.1561 13.0552 12.3851 13.4189 11.6475 13.8434C9.58976 15.0322 7.82537 16.6681 6.48469 18.6303C5.62375 17.858 4.93524 16.9129 4.46405 15.8566C3.99285 14.8003 3.74955 13.6566 3.75 12.5ZM7.6875 19.5312C8.90472 17.731 10.5153 16.231 12.3975 15.1447C13.0268 14.7815 13.6835 14.4681 14.3616 14.2072C14.5936 15.237 14.7109 16.2894 14.7113 17.345C14.7118 18.3713 14.6021 19.3946 14.3841 20.3975C13.27 20.7341 12.0972 20.8309 10.943 20.6816C9.7888 20.5323 8.67929 20.1402 7.6875 19.5312ZM16.0369 19.6934C16.1526 18.9175 16.2109 18.1342 16.2113 17.3497C16.2111 16.1355 16.0711 14.9253 15.7941 13.7431C17.0024 13.417 18.2484 13.2512 19.5 13.25C19.7375 13.25 19.9753 13.2559 20.2134 13.2678C20.0879 14.5964 19.6424 15.8748 18.915 16.9936C18.1877 18.1125 17.2001 19.0385 16.0369 19.6925V19.6934Z" fill="white"/>
</svg>
